<svg xmlns="http://www.w3.org/2000/svg" height="800" width="1200" viewBox="-9.76107 -2.6973 84.59594 16.1838"><path d="M13.025 1.0492l.4263.4137c1.0087 1.0875.9562 2.3313.9562 2.745v5.5438c0 .415-.3725.7262-.745.7262h-1.9137c-.3725 0-.6913-.3112-.6913-.7262V4.2604c-.1587-.9837-.7437-1.19-1.435-1.14-.2125-.62-.4262-1.14-.7975-1.6575-.7437-.725-.6375-.4662-.8512-.725.0537 0 .4262-.3112.9575-.4662.425-.1038 1.2225-.155 1.755-.1038 1.435.2075 1.9125.57 2.3387.8813M16.6938.428h1.86c.4262 0 .745.3112.745.725v8.5987c0 .415-.3188.7262-.745.7262h-1.86c-.4263 0-.745-.3112-.745-.7262V1.1529c0-.4137.3187-.725.745-.725m10.58.0001h1.9125c.3725 0 .69.3112.69.725v6.6824c-.0513.415-.105.7263-.3175 1.0875-.3188.5175-.745.985-1.17 1.2963-.5313.3625-1.17.4662-1.595.5175h-1.01V7.8354s.7437-.1025.7437-.7762V1.1529c0-.4137.32-.725.7463-.725m-3.775.1038h-1.915c-.4238 0-.7425.3112-.7425.725v6.6825c.0512.415.105.7262.3712 1.0875.3188.4675.6913.985 1.17 1.2437.5313.3625 1.1163.5188 1.5425.5188h1.0088V7.8867s-.69-.1025-.69-.7238v-.83L24.19 1.2567c0-.4138-.3188-.725-.6913-.725" fill="#1a171c" fill-rule="evenodd"/><path d="M4.5713.168c2.4462 0 4.4137 1.9687 4.4137 4.2487l-.0537 5.2837c0 .4138-.3188.725-.6913.725H6.4325c-.3725 0-.6912-.3112-.6912-.725v-5.44c-.16-.4137-.7438-.9337-1.2238-.9337-.5312 0-1.1687.52-1.275.9337v5.49c0 .415-.32.7263-.745.7263H.7425c-.4237 0-.7425-.3113-.7425-.7263l.0525-5.4387c0-2.2275 1.915-4.1438 4.3063-4.1438M48.22.9454l.3725.415c1.0625 1.0875 1.01 2.33 1.01 2.745L49.55 9.6492c0 .4137-.3187.7237-.6913.7237H46.945c-.3737 0-.7437-.31-.7437-.7237V4.1579c-.16-.985-.6926-1.1912-1.4376-1.14-.1587-.6212-.3724-1.14-.7962-1.6575-.745-.7262-.585-.4675-.85-.7262.0513 0 .4775-.31 1.0088-.465.4262-.105 1.2224-.2075 1.7024-.155 1.4876.2575 1.9663.62 2.3913.9312m3.615-.6212h1.915c.3725 0 .69.31.69.725v8.5987c0 .4138-.3175.725-.69.725h-1.915c-.3725 0-.6912-.3112-.6912-.725V1.0492c0-.415.3187-.725.6912-.725m10.58 0h1.915c.4238 0 .7438.31.7438.725v6.6825c-.0525.4137-.1063.725-.32 1.0875-.3188.5175-.7438.9837-1.2225 1.295-.5313.3112-1.1163.4675-1.5413.5175h-1.01v-2.9s.69-.1038.69-.7763c.0538-.4675.0538-.7262.0538-.7787V1.0492c0-.415.32-.725.6912-.725M58.64.4267h-1.86c-.4262 0-.745.3112-.745.6737v6.735c.0538.415.1063.725.3188 1.0363.3187.5175.745 1.035 1.2225 1.2937.5325.3638 1.1175.5188 1.5425.5188h1.01V7.7829s-.6913-.1037-.7438-.725V1.1004c0-.3625-.3187-.6737-.745-.6737" fill="#1a171c" fill-rule="evenodd"/><path d="M39.7663.013c2.4462 0 4.36 2.02 4.36 4.2474v5.335c0 .415-.3188.725-.745.725h-1.7538c-.4262 0-.745-.31-.745-.725l.0538-5.3875-.0538-.0512c-.105-.4663-.7437-.9325-1.2225-.9325-.4775 0-1.1162.5175-1.2225.9325l-.0525.1037.0525 5.3875c0 .4138-.3187.725-.7437.725h-1.755c-.425 0-.7438-.3112-.7438-.725v-5.44c0-2.2275 1.9138-4.1437 4.3588-4.1437" fill="#1a171c" fill-rule="evenodd"/></svg>